<svg width="60" height="53" viewBox="0 0 60 53" fill="none" xmlns="http://www.w3.org/2000/svg">
<rect width="60" height="52.5" rx="10" fill="#D77A0E"/>
<path d="M38.748 22.25L33.75 11H31.248L36.2461 22.25H38.748ZM28.752 11H26.25L21.252 22.25H23.7539L28.752 11ZM17.502 38.498C17.502 39.875 18.6211 41 20.0039 41H40.002C41.3789 41 42.5039 39.8809 42.5039 38.498L43.752 27.248H16.248L17.502 38.498ZM36.252 29.75H38.7539L37.5 38.498H34.998L36.252 29.75ZM28.752 29.75H31.2539V38.498H28.752V29.75ZM23.748 29.75L24.9961 38.498H22.5L21.252 29.75H23.748ZM43.752 23.498H16.248C15.5566 23.498 15 24.0605 15 24.752V26H45V24.752C45 24.0605 44.4434 23.498 43.752 23.498Z" fill="black"/>
</svg>
