<svg width="20" height="20" viewBox="0 0 20 20" fill="none" xmlns="http://www.w3.org/2000/svg">
<path d="M2.16797 18.332V18.3043L2.16489 18.2766L1.39086 11.332H18.6094L17.839 18.2769L17.8359 18.3044V18.332C17.8359 18.977 17.3106 19.5 16.668 19.5H3.33594C2.69097 19.5 2.16797 18.9746 2.16797 18.332ZM14.168 12H13.7345L13.673 12.4291L12.8371 18.2611L12.7553 18.832H13.332H15H15.4334L15.4949 18.403L16.3309 12.5709L16.4127 12H15.8359H14.168ZM9.16797 12H8.66797V12.5V18.332V18.832H9.16797H10.8359H11.3359V18.332V12.5V12H10.8359H9.16797ZM6.32702 12.4294L6.26576 12H5.83203H4.16797H3.59157L3.67298 12.5706L4.50501 18.4026L4.56627 18.832H5H6.66406H7.24046L7.15905 18.2614L6.32702 12.4294ZM14.489 7L11.6013 0.5H12.175L15.0628 7H14.489ZM4.93723 7L7.82499 0.5H8.39871L5.51095 7H4.93723ZM0.832031 8.83203H19.168C19.3497 8.83203 19.5 8.98012 19.5 9.16797V9.5H0.5V9.16797C0.5 8.98012 0.650282 8.83203 0.832031 8.83203Z" fill="black" stroke="#D77A0E"/>
</svg>
