<svg width="24" height="28" viewBox="0 0 24 28" fill="none" xmlns="http://www.w3.org/2000/svg">
<path d="M18.8571 8.57143V6.85714C18.8571 3.07607 15.781 0 12 0C8.21893 0 5.14286 3.07607 5.14286 6.85714V8.57143H0V23.1429C0 25.5098 1.91877 27.4286 4.28571 27.4286H19.7143C22.0812 27.4286 24 25.5098 24 23.1429V8.57143H18.8571ZM8.57143 6.85714C8.57143 4.96661 10.1095 3.42857 12 3.42857C13.8905 3.42857 15.4286 4.96661 15.4286 6.85714V8.57143H8.57143V6.85714ZM17.1429 13.2857C16.4328 13.2857 15.8571 12.7101 15.8571 12C15.8571 11.2899 16.4328 10.7143 17.1429 10.7143C17.8529 10.7143 18.4286 11.2899 18.4286 12C18.4286 12.7101 17.8529 13.2857 17.1429 13.2857ZM6.85714 13.2857C6.14705 13.2857 5.57143 12.7101 5.57143 12C5.57143 11.2899 6.14705 10.7143 6.85714 10.7143C7.56723 10.7143 8.14286 11.2899 8.14286 12C8.14286 12.7101 7.56723 13.2857 6.85714 13.2857Z" fill="#D77A0E"/>
</svg>
