<svg width="27" height="28" viewBox="0 0 27 28" fill="none" xmlns="http://www.w3.org/2000/svg">
<path fill-rule="evenodd" clip-rule="evenodd" d="M24.6445 1.15318C22.3485 -0.511071 19.307 -0.18382 17.662 1.82343C21.1059 2.98262 24.1119 5.16906 26.2755 8.08843C27.6125 5.85718 26.9388 2.82443 24.6445 1.15318Z" fill="#D77A0E"/>
<path fill-rule="evenodd" clip-rule="evenodd" d="M5.37701 4.24696C6.83654 3.19571 8.44745 2.37255 10.1545 1.80571C8.50776 -0.182294 5.46451 -0.504293 3.17026 1.14421C0.876009 2.79971 0.200509 5.80271 1.53926 8.01296C2.62071 6.57078 3.91468 5.301 5.37701 4.24696Z" fill="#D77A0E"/>
<path fill-rule="evenodd" clip-rule="evenodd" d="M25.117 15.1076C25.117 14.7611 25.096 14.4199 25.068 14.0821C24.592 8.58711 20.3465 4.20161 14.9793 3.64161C14.7413 3.61361 14.5015 3.61186 14.2583 3.60311C14.1148 3.59611 13.9713 3.57861 13.8243 3.57861H13.8173C7.57326 3.57861 2.51401 8.73936 2.51401 15.1076C2.51401 15.1584 2.52101 15.2109 2.52276 15.2616C2.53876 16.798 2.86086 18.3157 3.47023 19.7262C4.0796 21.1366 4.96401 22.4114 6.07176 23.4761C5.7057 23.6663 5.39897 23.9535 5.18509 24.3063C4.97121 24.6591 4.8584 25.0638 4.85901 25.4764C4.85901 26.7171 5.84601 27.7234 7.06401 27.7234C8.22951 27.7234 9.17101 26.8011 9.25151 25.6339C10.4573 26.1781 11.7715 26.5211 13.1558 26.6034C13.3763 26.6174 13.595 26.6384 13.8173 26.6384C14.071 26.6384 14.316 26.6156 14.5698 26.5999C15.938 26.5057 17.2767 26.158 18.5178 25.5744C18.5685 26.7714 19.5258 27.7251 20.7105 27.7251C21.9285 27.7251 22.9138 26.7189 22.9138 25.4781C22.9138 24.5629 22.38 23.7806 21.6135 23.4289C22.725 22.3472 23.6078 21.0532 24.2097 19.6238C24.8115 18.1943 25.1201 16.6586 25.117 15.1076ZM13.9223 23.2994C9.43701 23.2994 5.79001 19.5964 5.79001 15.0464C5.79001 10.4964 9.43701 6.79686 13.9223 6.79686C18.4058 6.79686 22.0545 10.4964 22.0545 15.0464C22.0545 19.5964 18.4058 23.2994 13.9223 23.2994Z" fill="#D77A0E"/>
<path fill-rule="evenodd" clip-rule="evenodd" d="M13 8.75H14.75V15.75H13V8.75Z" fill="#D77A0E"/>
<path fill-rule="evenodd" clip-rule="evenodd" d="M13 14H18.25V15.75H13V14Z" fill="#D77A0E"/>
</svg>
