<svg width="18" height="26" viewBox="0 0 18 26" fill="none" xmlns="http://www.w3.org/2000/svg">
<path d="M16.8375 5.5C18.1 8.2125 17.8125 11.4125 16.425 14.0125C15.25 16.125 13.5625 17.9125 12.125 19.875C11.5 20.75 10.875 21.6875 10.4125 22.7C10.25 23.0375 10.1375 23.3875 10.0125 23.7375C9.88751 24.0875 9.77501 24.4375 9.66251 24.7875C9.55001 25.1125 9.41251 25.5 9.00001 25.5C8.51251 25.5 8.37501 24.95 8.27501 24.575C7.97501 23.6625 7.67501 22.7875 7.21251 21.95C6.68751 20.9625 6.02501 20.05 5.35001 19.1625L16.8375 5.5ZM5.40001 8.525L1.27501 13.425C2.03751 15.0375 3.17501 16.4125 4.26251 17.7875C4.52501 18.1 4.78751 18.425 5.03751 18.7625L10.25 12.5875L10.2 12.6C8.37501 13.225 6.35001 12.3 5.62501 10.5C5.52501 10.2875 5.45001 10.0375 5.40001 9.7875C5.33123 9.37367 5.33123 8.95133 5.40001 8.5375V8.525ZM2.22501 3.775L2.21251 3.7875C0.187507 6.35 -0.162493 9.9125 1.05001 12.925L6.03751 7L5.97501 6.9375L2.22501 3.775ZM11.775 0.95L7.75001 5.7125L7.80001 5.7C9.47501 5.125 11.35 5.85 12.2 7.375C12.3875 7.725 12.5375 8.1 12.5875 8.475C12.6625 8.95 12.6875 9.2875 12.6 9.75V9.7625L16.6 5.0125C15.5544 3.11174 13.8389 1.66806 11.7875 0.9625L11.775 0.95ZM6.36251 6.6125L11.25 0.8L11.2 0.7875C10.475 0.6 9.73751 0.5 9.00001 0.5C6.53751 0.5 4.21251 1.5625 2.56251 3.3875L2.53751 3.4L6.36251 6.6125Z" fill="#D77A0E"/>
</svg>
