<svg width="26" height="20" viewBox="0 0 26 20" fill="none" xmlns="http://www.w3.org/2000/svg">
<path d="M23.8889 0.666748H2.11111C1.69855 0.666748 1.30289 0.830636 1.01117 1.12236C0.719446 1.41408 0.555557 1.80974 0.555557 2.2223V17.7779C0.555557 18.1904 0.719446 18.5861 1.01117 18.8778C1.30289 19.1695 1.69855 19.3334 2.11111 19.3334H23.8889C24.3014 19.3334 24.6971 19.1695 24.9888 18.8778C25.2806 18.5861 25.4444 18.1904 25.4444 17.7779V2.2223C25.4444 1.80974 25.2806 1.41408 24.9888 1.12236C24.6971 0.830636 24.3014 0.666748 23.8889 0.666748ZM22.6911 17.7779H3.40222L8.84667 12.1467L7.72667 11.0656L2.11111 16.8756V3.40453L11.7789 13.0256C12.0703 13.3154 12.4646 13.478 12.8756 13.478C13.2865 13.478 13.6808 13.3154 13.9722 13.0256L23.8889 3.16341V16.7745L18.1644 11.0501L17.0678 12.1467L22.6911 17.7779ZM3.13 2.2223H22.6289L12.8756 11.9212L3.13 2.2223Z" fill="#D77A0E"/>
</svg>
