<svg width="20" height="32" viewBox="0 0 20 32" fill="none" xmlns="http://www.w3.org/2000/svg">
<path d="M15.7191 0C16.8785 0 17.8818 0.423634 18.7291 1.2709C19.5764 2.11817 20 3.12152 20 4.28094V27.1572C20 28.3166 19.5764 29.32 18.7291 30.1672C17.8818 31.0145 16.8785 31.4381 15.7191 31.4381H4.28094C3.07692 31.4381 2.06243 31.0145 1.23746 30.1672C0.412486 29.32 0 28.3166 0 27.1572V4.28094C0 3.12152 0.412486 2.11817 1.23746 1.2709C2.06243 0.423634 3.07692 0 4.28094 0H15.7191ZM12.8428 28.5619V27.1572H7.15719V28.5619H12.8428ZM17.4582 24.2809V4.28094H2.47492V24.2809H17.4582Z" fill="#D77A0E"/>
</svg>
