<svg width="28" height="28" viewBox="0 0 28 28" fill="none" xmlns="http://www.w3.org/2000/svg">
<path d="M19.8133 16.6666C19.92 15.7866 20 14.9066 20 14C20 13.0933 19.92 12.2133 19.8133 11.3333H24.32C24.5333 12.1866 24.6667 13.08 24.6667 14C24.6667 14.92 24.5333 15.8133 24.32 16.6666H19.8133ZM17.4533 24.08C18.2533 22.6 18.8667 21 19.2933 19.3333H23.2267C21.9349 21.5577 19.8855 23.2426 17.4533 24.08ZM17.12 16.6666H10.88C10.7467 15.7866 10.6667 14.9066 10.6667 14C10.6667 13.0933 10.7467 12.2 10.88 11.3333H17.12C17.24 12.2 17.3333 13.0933 17.3333 14C17.3333 14.9066 17.24 15.7866 17.12 16.6666ZM14 24.6133C12.8933 23.0133 12 21.24 11.4533 19.3333H16.5467C16 21.24 15.1067 23.0133 14 24.6133ZM8.66667 8.66663H4.77334C6.05181 6.43625 8.09973 4.74861 10.5333 3.91996C9.73334 5.39996 9.13334 6.99996 8.66667 8.66663ZM4.77334 19.3333H8.66667C9.13334 21 9.73334 22.6 10.5333 24.08C8.10484 23.2422 6.0598 21.5569 4.77334 19.3333ZM3.68001 16.6666C3.46667 15.8133 3.33334 14.92 3.33334 14C3.33334 13.08 3.46667 12.1866 3.68001 11.3333H8.18667C8.08001 12.2133 8.00001 13.0933 8.00001 14C8.00001 14.9066 8.08001 15.7866 8.18667 16.6666H3.68001ZM14 3.37329C15.1067 4.97329 16 6.75996 16.5467 8.66663H11.4533C12 6.75996 12.8933 4.97329 14 3.37329ZM23.2267 8.66663H19.2933C18.876 7.01524 18.2581 5.42115 17.4533 3.91996C19.9067 4.75996 21.9467 6.45329 23.2267 8.66663ZM14 0.666626C6.62667 0.666626 0.666672 6.66663 0.666672 14C0.666672 17.5362 2.07143 20.9276 4.57191 23.4281C5.81003 24.6662 7.27988 25.6483 8.89756 26.3184C10.5152 26.9884 12.249 27.3333 14 27.3333C17.5362 27.3333 20.9276 25.9285 23.4281 23.4281C25.9286 20.9276 27.3333 17.5362 27.3333 14C27.3333 12.249 26.9885 10.5152 26.3184 8.89751C25.6483 7.27984 24.6662 5.80998 23.4281 4.57187C22.19 3.33375 20.7201 2.35163 19.1025 1.68157C17.4848 1.0115 15.751 0.666626 14 0.666626Z" fill="#D77A0E"/>
</svg>
