<svg width="30" height="26" viewBox="0 0 30 26" fill="none" xmlns="http://www.w3.org/2000/svg">
<g clip-path="url(#clip0)">
<path d="M1.90275 0C1.39811 0 0.914137 0.200467 0.557302 0.557302C0.200468 0.914137 0 1.39811 0 1.90275V12.3679H1.90275C1.90275 13.1248 2.20345 13.8508 2.7387 14.386C3.27395 14.9213 3.99991 15.222 4.75687 15.222C5.51383 15.222 6.23979 14.9213 6.77504 14.386C7.31029 13.8508 7.61099 13.1248 7.61099 12.3679H13.3192C13.3192 13.1248 13.6199 13.8508 14.1552 14.386C14.6904 14.9213 15.4164 15.222 16.1734 15.222C16.9303 15.222 17.6563 14.9213 18.1915 14.386C18.7268 13.8508 19.0275 13.1248 19.0275 12.3679H20.9302V7.61099L18.0761 3.8055H15.222V0H1.90275ZM8.56237 1.90275L12.3679 5.70825L8.56237 9.51374V6.65962H2.85412V4.75687H8.56237V1.90275ZM15.222 5.23256H17.6004L19.4746 7.61099H15.222V5.23256ZM4.75687 10.9408C5.13535 10.9408 5.49833 11.0912 5.76596 11.3588C6.03358 11.6264 6.18393 11.9894 6.18393 12.3679C6.18393 12.7463 6.03358 13.1093 5.76596 13.3769C5.49833 13.6446 5.13535 13.7949 4.75687 13.7949C4.37839 13.7949 4.01541 13.6446 3.74779 13.3769C3.48016 13.1093 3.32981 12.7463 3.32981 12.3679C3.32981 11.9894 3.48016 11.6264 3.74779 11.3588C4.01541 11.0912 4.37839 10.9408 4.75687 10.9408ZM16.1734 10.9408C16.5518 10.9408 16.9148 11.0912 17.1824 11.3588C17.4501 11.6264 17.6004 11.9894 17.6004 12.3679C17.6004 12.7463 17.4501 13.1093 17.1824 13.3769C16.9148 13.6446 16.5518 13.7949 16.1734 13.7949C15.7949 13.7949 15.4319 13.6446 15.1643 13.3769C14.8967 13.1093 14.7463 12.7463 14.7463 12.3679C14.7463 11.9894 14.8967 11.6264 15.1643 11.3588C15.4319 11.0912 15.7949 10.9408 16.1734 10.9408Z" fill="#D77A0E"/>
<path d="M23.0233 23.721C26.093 23.721 28.6046 21.2094 28.6046 18.1396C28.6046 15.0698 26.093 12.5582 23.0233 12.5582C19.9535 12.5582 17.4419 15.0698 17.4419 18.1396C17.4419 21.2094 19.9535 23.721 23.0233 23.721ZM23.0233 11.1628C26.8605 11.1628 30 14.3024 30 18.1396C30 21.9768 26.8605 25.1163 23.0233 25.1163C19.186 25.1163 16.0465 21.9768 16.0465 18.1396C16.0465 14.3024 19.186 11.1628 23.0233 11.1628ZM26.5116 19.4652L26.0233 20.3721L22.3256 18.3489V14.6512H23.3721V17.721L26.5116 19.4652Z" fill="#D77A0E"/>
</g>
<defs>
<clipPath id="clip0">
<rect width="30" height="25.1163" fill="white"/>
</clipPath>
</defs>
</svg>
