<svg width="28" height="28" viewBox="0 0 28 28" fill="none" xmlns="http://www.w3.org/2000/svg">
<g clip-path="url(#clip0)">
<path d="M27.79 6.75496L26.7225 4.46246C26.59 4.18068 26.3971 3.93147 26.1576 3.73249C25.9181 3.5335 25.6378 3.38959 25.3365 3.31096C21.945 2.38696 18.0547 1.82171 14.0437 1.75171C10.0906 1.81308 6.16016 2.36206 2.3415 3.38621C2.05275 3.47021 1.54875 3.89371 1.28275 4.45196L0.209995 6.75671C0.0722925 7.04033 0.000502525 7.35142 -4.7608e-06 7.66671V9.18921L-0.00175476 9.26096C-0.00175476 9.94696 0.554745 10.5035 1.24075 10.5035L1.2985 10.5017H5.70499C6.05224 10.4935 6.3825 10.3497 6.62515 10.1012C6.8678 9.85266 7.00359 9.51906 7.00349 9.17171L6.99999 9.07896V7.61246V7.59146C7.00012 7.4013 7.04792 7.2142 7.13903 7.04728C7.23013 6.88036 7.36163 6.73894 7.52149 6.63596C9.52145 5.57368 11.7794 5.09408 14.0385 5.25171C16.2926 5.09964 18.5447 5.57708 20.5432 6.63071C20.7935 6.80396 21.0017 7.15571 21.0017 7.55646V9.08246C20.9899 9.26128 21.0143 9.44066 21.0735 9.60981C21.1327 9.77896 21.2255 9.9344 21.3463 10.0668C21.4671 10.1992 21.6134 10.3058 21.7764 10.3802C21.9394 10.4547 22.1158 10.4954 22.295 10.5H26.7067L26.761 10.5017C27.0905 10.5017 27.4066 10.3708 27.6396 10.1378C27.8726 9.90478 28.0035 9.58874 28.0035 9.25921L28.0017 9.18396V7.66496C28.0007 7.34522 27.9271 7.02989 27.7865 6.74271L27.79 6.75496Z" fill="#D77A0E"/>
<path d="M21 14.525C19.8611 13.0655 19.2443 11.2663 19.2482 9.415L19.25 9.268V8.75H17.5V10.5H10.5V8.75H8.75V9.3275L8.75175 9.4675C8.75427 11.3262 8.13244 13.1319 6.986 14.595L1.75 21V26.25H26.25V21L21 14.525ZM14 22.75C12.6076 22.75 11.2723 22.1969 10.2877 21.2123C9.30312 20.2277 8.75 18.8924 8.75 17.5C8.75 16.1076 9.30312 14.7723 10.2877 13.7877C11.2723 12.8031 12.6076 12.25 14 12.25C15.3924 12.25 16.7277 12.8031 17.7123 13.7877C18.6969 14.7723 19.25 16.1076 19.25 17.5C19.25 18.8924 18.6969 20.2277 17.7123 21.2123C16.7277 22.1969 15.3924 22.75 14 22.75Z" fill="#D77A0E"/>
<path d="M17.5 17.5C17.5106 17.9661 17.4279 18.4296 17.2568 18.8633C17.0858 19.297 16.8298 19.6921 16.5039 20.0255C16.178 20.3589 15.7888 20.6239 15.3592 20.8048C14.9295 20.9857 14.468 21.079 14.0018 21.0791C13.5356 21.0792 13.074 20.9862 12.6443 20.8055C12.2145 20.6248 11.8252 20.36 11.4991 20.0268C11.1731 19.6935 10.9169 19.2985 10.7457 18.8649C10.5744 18.4313 10.4915 17.9678 10.5018 17.5017C10.522 16.5872 10.8994 15.717 11.5532 15.0773C12.2071 14.4376 13.0853 14.0793 14 14.0791C14.9147 14.0789 15.7932 14.4367 16.4473 15.0761C17.1015 15.7155 17.4793 16.5855 17.5 17.5Z" fill="#D77A0E"/>
</g>
<defs>
<clipPath id="clip0">
<rect width="28" height="28" fill="white"/>
</clipPath>
</defs>
</svg>
