<svg width="142" height="88" viewBox="0 0 142 88" fill="none" xmlns="http://www.w3.org/2000/svg">
<path d="M138.056 28.0568C139.201 27.2855 139.504 25.7319 138.733 24.5867L126.164 5.92459C125.393 4.77939 123.839 4.47627 122.694 5.24756C121.549 6.01885 121.246 7.57246 122.017 8.71767L133.189 25.3062L116.601 36.4785C115.456 37.2498 115.153 38.8034 115.924 39.9486C116.695 41.0938 118.249 41.3969 119.394 40.6256L138.056 28.0568ZM14.9255 81.4126C31.7939 43.7863 76.3858 16.7708 136.181 28.437L137.138 23.5295C75.3089 11.4664 28.2817 39.3981 10.363 79.3672L14.9255 81.4126Z" fill="white"/>
</svg>
